<svg xmlns="http://www.w3.org/2000/svg" fill="none" viewBox="0 0 394 80"><path fill="#000" d="M262 0h68.5v12.7h-27.2v66.6h-13.6V12.7H262V0ZM149 0v12.7H94v20.4h44.3v12.6H94v21h55v12.6H80.5V0h68.7zm34.3 0h-17.8l63.8 79.4h17.9l-32-39.7 32-39.6h-17.9l-23 28.6-23-28.6zm18.3 56.7-9-11-27.1 33.7h17.8l18.3-22.7z"/><path fill="#000" d="M81 79.3 17 0H0v79.3h13.6V17l50.2 62.3H81Zm252.6-.4c-1 0-1.8-.4-2.5-1s-1.1-1.6-1.1-2.6.3-1.8 1-2.5 1.6-1 2.6-1 1.8.3 2.5 1a3.4 3.4 0 0 1 .6 4.3 3.7 3.7 0 0 1-3 1.8zm23.2-33.4c6 0 10.9 1 14.6 3 .3.3.6.5.6.8l-.2.9-3.9 4.8c-.2.2-.4.3-.6.3-.2 0-.4-.1-.5-.2-2.9-1.5-6.4-2.4-10.3-2.4-5.5 0-9.6 1.5-12.3 4.6-2.8 3-4.2 7.5-4.2 13.5 0 6 1.3 10.5 4 13.5 2.7 3 6.9 4.5 12.6 4.5 4.3 0 8.1-.9 11.2-2.8.2-.1.4-.2.6-.1.2 0 .4.2.6.4l2.9 5.3c.2.3.2.5.1.8-.3.5-.7.9-1.1 1.2-4.3 2.9-9.5 4.4-15.5 4.4-8.8 0-15.4-2.4-19.8-7.2-4.5-4.9-6.8-12.2-6.8-22 0-9.7 2.3-17 6.8-21.8 4.6-4.9 11.2-7.3 19.8-7.3l1.4-.2z"/></svg>
